Coordinates
version=1
nRows=16
nColumns=40
inDegrees=yes

Units are S.I. units (second, meters, Newtons, ...)
Angles are in degrees.

endheader
time	pelvis_tilt	pelvis_list	pelvis_rotation	pelvis_tx	pelvis_ty	pelvis_tz	hip_flexion_r	hip_adduction_r	hip_rotation_r	knee_angle_r	knee_angle_r_beta	ankle_angle_r	subtalar_angle_r	mtp_angle_r	hip_flexion_l	hip_adduction_l	hip_rotation_l	knee_angle_l	knee_angle_l_beta	ankle_angle_l	subtalar_angle_l	mtp_angle_l	lumbar_extension	lumbar_bending	lumbar_rotation	arm_flex_r	arm_add_r	arm_rot_r	elbow_flex_r	pro_sup_r	wrist_flex_r	wrist_dev_r	arm_flex_l	arm_add_l	arm_rot_l	elbow_flex_l	pro_sup_l	wrist_flex_l	wrist_dev_l
     23.84750000	     -7.94136894	     -3.96635899	     -3.98159052	      0.83828938	      0.92322840	      0.52822448	     22.38814857	      2.14257688	    -14.28195327	     18.13471750	     18.13471750	      5.85309920	      0.66142628	     -4.43260702	     22.53257517	     -9.76858626	     -2.42305433	     51.25766890	     51.25766890	     16.08242549	    -19.08641902	     14.33048939	    -10.90761882	      7.99751006	      0.99253359	      0.78825936	    -14.01614330	    -13.52226536	     32.77453825	     46.60977296	      0.00000000	      0.00000000	     11.75088668	     -8.70431082	     -6.26148868	     50.24309053	     46.50722707	      0.00000000	      0.00000000
     23.86085714	     -7.85965177	     -3.98294738	     -3.69824886	      0.83713509	      0.92422379	      0.53057764	     21.59340887	      2.26327275	    -14.66740318	     17.56545042	     17.56545042	      5.98235430	      1.12362063	     -4.89962393	     24.04035620	    -10.08647840	     -2.15396723	     53.08166772	     53.08166772	     16.34469234	    -19.16032606	     17.35636077	    -10.94091696	      7.98464326	      1.25264387	      1.83660025	    -14.30745645	    -12.01834306	     34.06393298	     46.43524605	      0.00000000	      0.00000000	     11.67924849	     -8.15451818	     -6.20903880	     46.64402333	     46.48437567	      0.00000000	      0.00000000
     23.87421429	     -7.81073133	     -4.03203931	     -3.45030540	      0.83589132	      0.92502900	      0.53300009	     20.89573337	      2.45871131	    -14.90195884	     17.10491412	     17.10491412	      6.23081359	      1.32842738	     -4.94394914	     25.42584953	    -10.55154619	     -2.10905621	     54.19121105	     54.19121105	     15.88314063	    -19.22740654	     17.56831256	    -11.01746873	      7.93854631	      1.39968595	      3.20759467	    -14.38439548	    -11.86910468	     34.84976499	     46.40029076	      0.00000000	      0.00000000	     10.62286288	     -7.89121822	     -6.05900928	     45.58520094	     46.44982567	      0.00000000	      0.00000000
     23.88757143	     -7.75729003	     -4.03643194	     -3.18001901	      0.83456531	      0.92589856	      0.53536179	     20.15114069	      2.61291179	    -15.16592377	     16.54272469	     16.54272469	      6.38798510	      1.62355937	     -5.02857879	     26.71689124	    -10.92231738	     -2.04153808	     54.69607979	     54.69607979	     15.70637318	    -19.27260133	     18.11555745	    -11.10104277	      7.86434064	      1.29321531	      4.78805198	    -14.39523080	    -11.47444506	     35.82752751	     46.34221485	      0.00000000	      0.00000000	      9.67189679	     -7.82525172	     -5.91466261	     43.72676515	     46.41142548	      0.00000000	      0.00000000
     23.90092857	     -7.69780920	     -3.91186742	     -2.96101663	      0.83310542	      0.92668285	      0.53758801	     19.53315217	      2.61478176	    -15.31669646	     16.19597600	     16.19597600	      6.49936618	      1.79820294	     -5.45409871	     27.91755213	    -11.12617065	     -2.05618788	     54.65862199	     54.65862199	     15.96762471	    -19.29134961	     19.40646912	    -11.14965653	      7.59722024	      1.85313685	      5.85068174	    -14.98496510	     -9.55969126	     36.84584981	     46.17468850	      0.00000000	      0.00000000	      9.78226245	     -7.35086186	     -5.91795561	     40.05924046	     46.39199510	      0.00000000	      0.00000000
     23.91428571	     -7.67427479	     -3.78246740	     -2.76297777	      0.83148587	      0.92732182	      0.53974154	     19.05306696	      2.61267293	    -15.35318306	     16.02253508	     16.02253508	      6.73620241	      1.77739634	     -5.48834631	     29.01657618	    -11.32934269	     -2.16543638	     53.97597680	     53.97597680	     15.92363323	    -19.29887260	     19.44543913	    -11.26682520	      7.30108343	      2.40318037	      7.16359110	    -15.28906980	     -9.53940949	     37.46698057	     46.15753563	      0.00000000	      0.00000000	      8.79846367	     -7.09241646	     -5.84847297	     39.45568354	     46.36774621	      0.00000000	      0.00000000
     23.92764286	     -7.58602896	     -3.67797286	     -2.44800837	      0.82984779	      0.92806469	      0.54168099	     18.39502401	      2.63908517	    -15.44465868	     15.63131765	     15.63131765	      6.90501357	      1.71658581	     -5.43628782	     29.95327658	    -11.43033568	     -2.12798752	     52.73439861	     52.73439861	     15.90511029	    -19.28405999	     19.41866725	    -11.41151266	      7.05161726	      1.91827922	      8.99842036	    -15.19241070	     -9.13203148	     38.65569063	     46.09571252	      0.00000000	      0.00000000	      7.73381812	     -7.35549570	     -5.76540218	     37.60788199	     46.33487799	      0.00000000	      0.00000000
     23.94100000	     -7.54426218	     -3.54563025	     -2.14887869	      0.82800005	      0.92857730	      0.54335673	     17.95640937	      2.58603964	    -15.49173845	     15.54271470	     15.54271470	      7.13034831	      1.52075166	     -5.43075181	     30.83882243	    -11.44376478	     -2.11733785	     51.01839434	     51.01839434	     15.83218248	    -19.24163155	     19.16848962	    -11.52636277	      6.79754860	      1.94300900	     10.61611409	    -15.50812374	     -8.32351786	     39.53717229	     46.02213667	      0.00000000	      0.00000000	      7.06890825	     -7.31692006	     -5.71333361	     35.52166942	     46.31050385	      0.00000000	      0.00000000
     23.95435714	     -7.52733064	     -3.35394150	     -1.86254496	      0.82605851	      0.92900949	      0.54480617	     17.59814225	      2.45539529	    -15.47914984	     15.53595057	     15.53595057	      7.42625439	      1.27268727	     -5.28781202	     31.57560792	    -11.33142480	     -2.15421828	     48.78113861	     48.78113861	     15.44305890	    -19.19231663	     18.26717637	    -11.60932976	      6.47654028	      2.34554140	     11.92247063	    -16.28013948	     -6.30156334	     40.34540102	     45.87925851	      0.00000000	      0.00000000	      6.92483614	     -7.11432510	     -5.94611149	     32.77352603	     46.32712568	      0.00000000	      0.00000000
     23.96771429	     -7.49111410	     -3.13702780	     -1.52646714	      0.82400307	      0.92936086	      0.54596376	     17.27887465	      2.25533229	    -15.48593421	     15.62925773	     15.62925773	      7.68591242	      0.98352303	     -5.29508879	     32.20906527	    -11.05126158	     -2.04148382	     46.23357547	     46.23357547	     15.29482254	    -19.10621110	     18.25257283	    -11.77429561	      6.12659142	      2.32095878	     13.51114931	    -16.46371031	     -6.15849963	     41.26570413	     45.84515572	      0.00000000	      0.00000000	      5.94101097	     -7.23188155	     -5.97361168	     31.88483423	     46.31258264	      0.00000000	      0.00000000
     23.98107143	     -7.50797796	     -2.95649551	     -1.16055762	      0.82185897	      0.92948576	      0.54679108	     17.04888345	      2.06317145	    -15.55151957	     15.77719599	     15.77719599	      7.99698643	      0.62517242	     -5.30317907	     32.82535093	    -10.72221747	     -1.86231784	     43.45113578	     43.45113578	     14.96498034	    -18.95947002	     18.10770235	    -11.85763125	      5.88665114	      2.40855701	     15.10370952	    -16.88838386	     -5.97300937	     42.04044989	     45.81539823	      0.00000000	      0.00000000	      5.07550043	     -7.21729879	     -5.96463374	     30.92315444	     46.29557420	      0.00000000	      0.00000000
     23.99442857	     -7.52102608	     -2.77828743	     -0.77282182	      0.81969712	      0.92953103	      0.54738286	     16.85013285	      1.84522581	    -15.60608632	     15.99539376	     15.99539376	      8.33090320	      0.24927931	     -5.31634522	     33.33223365	    -10.30551663	     -1.58523057	     40.46524010	     40.46524010	     14.45206784	    -18.73775687	     17.88748123	    -11.94121165	      5.68174929	      2.47769782	     16.68083856	    -17.29266806	     -5.74675005	     42.77890694	     45.78527144	      0.00000000	      0.00000000	      4.27408036	     -7.24640126	     -5.94555958	     29.92768869	     46.27903699	      0.00000000	      0.00000000
     24.00778571	     -7.52655591	     -2.69575844	     -0.38553304	      0.81753779	      0.92939501	      0.54781559	     16.68880071	      1.70449492	    -15.70703612	     16.32722324	     16.32722324	      8.84188366	     -0.07429213	     -4.90869614	     33.66433798	     -9.99985340	     -1.37753482	     37.17855016	     37.17855016	     12.83223500	    -18.45753007	     14.77386756	    -12.00045357	      5.58964698	      2.41893567	     18.44348011	    -18.01655661	     -3.87136493	     43.25752864	     45.68209080	      0.00000000	      0.00000000	      3.95820044	     -7.18641183	     -6.07082653	     27.56150546	     46.29428486	      0.00000000	      0.00000000
     24.02114286	     -7.57585188	     -2.55140385	      0.00029610	      0.81538733	      0.92920966	      0.54799976	     16.52622757	      1.49453732	    -15.80135134	     16.55208971	     16.55208971	      9.16961310	     -0.42568740	     -5.00626762	     34.08546544	     -9.53982432	     -1.02067655	     34.13118011	     34.13118011	     12.36417413	    -17.82267072	     14.98851807	    -12.04048043	      5.44593107	      2.57900580	     19.86544470	    -18.47473560	     -3.88836672	     43.95116126	     45.66614843	      0.00000000	      0.00000000	      3.12040484	     -7.19099652	     -6.10338571	     27.10192119	     46.28440182	      0.00000000	      0.00000000
     24.03450000	     -7.60923784	     -2.49895245	      0.38968143	      0.81331238	      0.92891360	      0.54804385	     16.37429420	      1.35341440	    -15.96869482	     16.86511690	     16.86511690	      9.64088197	     -0.64522802	     -4.80730394	     34.34728488	     -9.18285199	     -0.70636219	     30.91211814	     30.91211814	     10.73763240	    -17.21131625	     12.36416245	    -12.06511852	      5.44230241	      2.41832455	     21.59751698	    -18.98254998	     -2.72604266	     44.45058292	     45.60424696	      0.00000000	      0.00000000	      2.31335337	     -7.20530979	     -6.32503324	     26.15140833	     46.30501767	      0.00000000	      0.00000000
     24.04785714	     -7.65165851	     -2.45096834	      0.75417649	      0.81130178	      0.92864931	      0.54799797	     16.16336804	      1.24302436	    -16.10291116	     17.03756039	     17.03756039	      9.96474198	     -0.92906042	     -4.91960981	     34.71204381	     -8.86993830	     -0.50150451	     28.12838984	     28.12838984	     10.32630013	    -15.87354345	     12.61699923	    -12.08556269	      5.43811492	      2.61625933	     22.97354487	    -19.44388616	     -2.81583442	     45.04426176	     45.59582602	      0.00000000	      0.00000000	      1.55938155	     -7.19191339	     -6.33553476	     25.79263008	     46.29261326	      0.00000000	      0.00000000
